# xmcd CD database file
#
# Track frame offsets:
#	150
#	15653
#	32463
#	53758
#	74112
#	95930
#	117621
#	137282
#	158947
#	180953
#	195973
#	216180
#
# Disc length: 3132 seconds
#
# Revision: 1
# Processed by: cddbd v1.5.1PL0 Copyright (c) Steve Scherf et al.
# Submitted via: CDex 1.51
#
DISCID=a40c3a0c
DTITLE=Bon Jovi - 1.000.000 Bon Jovi Fans Can't Be Wrong [CD2]
DYEAR=2004
DGENRE=Country
TTITLE0=Garageland
TTITLE1=Starting All Over Again
TTITLE2=Maybe Someday
TTITLE3=Last Chance Train
TTITLE4=The Fire Inside
TTITLE5=Every Beat Of My Heart
TTITLE6=Rich Man Living In A Poor Man's
TTITLE7=The One That Got Away
TTITLE8=You Can Sleep While I Dream
TTITLE9=Outlaws Of Love
TTITLE10=Good Guy's Don't
TTITLE11=We Rule The Night
EXTD=YEAR: 2004
EXTT0=
EXTT1=
EXTT2=
EXTT3=
EXTT4=
EXTT5=
EXTT6=
EXTT7=
EXTT8=
EXTT9=
EXTT10=
EXTT11=
PLAYORDER=
